<svg id="Layer_1" data-name="Layer 1" xmlns="http://www.w3.org/2000/svg" viewBox="0 0 1169.06 322.19"><defs><style>.cls-1{fill:#fff;}</style></defs><path class="cls-1" d="M139,27.49a122,122,0,0,0-79.8,214.24c13.7,11.85,21.37,22.35,21.37,40.46h0A10.41,10.41,0,0,0,91,292.6h96a10.41,10.41,0,0,0,10.41-10.41h0c0-18.23,7.89-28.72,21.64-40.7A122,122,0,0,0,139,27.49Zm55.87,203A97.94,97.94,0,0,1,166.32,244v0a99.07,99.07,0,0,1-54.56,0v0A98.37,98.37,0,0,1,139,51.14h0c.75,0,1.49,0,2.24,0l.74,0,1.48.05.91,0,1.3.08,1,.07,1.22.1,1,.1,1.15.12,1.05.12,1.1.14,1.09.15,1,.16,1.12.18,1,.17,1.19.22.82.16,1.31.27.37.08q2.74.6,5.43,1.35l.19.05,1.64.48.37.11,1.58.5.39.13,1.58.53.37.13,1.6.58.29.11,1.67.64.16.06A98.47,98.47,0,0,1,204.2,75.82L183,92.5l-1.8,1.41q-2.18-1.65-4.49-3.14l-.09-.06c-.72-.46-1.45-.9-2.19-1.34l-.24-.14c-.69-.41-1.39-.8-2.1-1.18l-.33-.18c-.69-.37-1.39-.72-2.1-1.07l-.35-.17c-.72-.35-1.46-.69-2.2-1l-.27-.12c-1.67-.72-3.37-1.39-5.1-2l-.59-.19-1.92-.62L158,82.37,156.65,82l-1.39-.34-1.17-.27-1.55-.32-1-.19c-.56-.11-1.13-.2-1.7-.29l-.86-.13c-.62-.09-1.24-.17-1.87-.24l-.65-.07-2.09-.2h-.24c-1.67-.12-3.36-.19-5.07-.19a69.75,69.75,0,1,0,67.53,52.37l-68.24,53.53L86.54,134.89l20-20.42,33.88,33.19,75.64-59.34a97.85,97.85,0,0,1,7.77,11.33h0a.75.75,0,0,0,.07.12l.58,1c.45.79.89,1.58,1.32,2.38l.33.63c.47.89.93,1.8,1.38,2.71.07.14.13.28.2.43.47,1,.93,1.95,1.36,2.94l.12.27c.46,1,.9,2.11,1.33,3.18a98.49,98.49,0,0,1-35.62,117.13Z" transform="translate(-17.06 -27.49)"/><rect class="cls-1" x="62.81" y="275.32" width="117.7" height="17.77" rx="5.49"/><path class="cls-1" d="M62.81,304.42h117.7a0,0,0,0,1,0,0v6.79a11,11,0,0,1-11,11H73.79a11,11,0,0,1-11-11v-6.79A0,0,0,0,1,62.81,304.42Z"/><path class="cls-1" d="M387.7,264.72a68.49,68.49,0,0,1-28-5.74,70,70,0,0,1-22.77-16.05,74.26,74.26,0,0,1-15.25-24.24,86.15,86.15,0,0,1-.14-60,72.63,72.63,0,0,1,15.21-24.2,70.27,70.27,0,0,1,23.57-16.19,77.11,77.11,0,0,1,30.43-5.82,107.12,107.12,0,0,1,36.69,6.76,77.78,77.78,0,0,1,17.12,8.89l-18,30.42a51.53,51.53,0,0,0-17.16-8.31,66.37,66.37,0,0,0-18-2.8,34.87,34.87,0,0,0-14.23,2.71,27.38,27.38,0,0,0-10.32,7.83,34.18,34.18,0,0,0-6.27,12.36,58.62,58.62,0,0,0-2.09,16.32,60.26,60.26,0,0,0,2.4,17.75,41,41,0,0,0,6.62,13.21,28.19,28.19,0,0,0,10,8.22,27.86,27.86,0,0,0,12.41,2.81,29.32,29.32,0,0,0,10-1.69,26.66,26.66,0,0,0,8.19-4.67,22.7,22.7,0,0,0,5.51-6.81,16.94,16.94,0,0,0,2-8v-.18H387.7V177.19h67.78v28.47a49.44,49.44,0,0,1-5.38,22.59,62,62,0,0,1-14.81,18.9,71.25,71.25,0,0,1-21.66,12.9A72.14,72.14,0,0,1,387.7,264.72Z" transform="translate(-17.06 -27.49)"/><path class="cls-1" d="M475.23,261.87V115.11h58q15.48,0,27,5.47A40.9,40.9,0,0,1,578,136.41q6.31,10.36,6.31,25.13A53.71,53.71,0,0,1,581,180.71a43.6,43.6,0,0,1-9.56,15.12A46.92,46.92,0,0,1,556,206.19l47.5,55.68H553.86L514.45,211h-.08v50.87Zm39.14-83.25h6a37.93,37.93,0,0,0,12.49-1.78A14,14,0,0,0,543,162.61q0-8.1-5.74-12.23t-16.85-4.14h-6Z" transform="translate(-17.06 -27.49)"/><path class="cls-1" d="M674.65,264.72a71.24,71.24,0,0,1-28.82-5.87,73.52,73.52,0,0,1-23.57-16.32,77.75,77.75,0,0,1,0-107.9,73.52,73.52,0,0,1,23.57-16.32,73.68,73.68,0,0,1,57.64,0A73.41,73.41,0,0,1,727,134.63a77.76,77.76,0,0,1,0,107.9,73.41,73.41,0,0,1-23.57,16.32A71.21,71.21,0,0,1,674.65,264.72Zm0-37.71a30.77,30.77,0,0,0,13.08-2.72,28.3,28.3,0,0,0,10-7.78,36.2,36.2,0,0,0,6.45-12.14,56.05,56.05,0,0,0,0-31.58,36.2,36.2,0,0,0-6.45-12.14,28.3,28.3,0,0,0-10-7.78,32.79,32.79,0,0,0-26.15,0,28.13,28.13,0,0,0-10.05,7.78,36.2,36.2,0,0,0-6.45,12.14,56.05,56.05,0,0,0,0,31.58,36.2,36.2,0,0,0,6.45,12.14,28.13,28.13,0,0,0,10.05,7.78A30.76,30.76,0,0,0,674.65,227Z" transform="translate(-17.06 -27.49)"/><path class="cls-1" d="M830.14,264.72a71.21,71.21,0,0,1-28.82-5.87,73.41,73.41,0,0,1-23.57-16.32,77.75,77.75,0,0,1,0-107.9,73.41,73.41,0,0,1,23.57-16.32,73.68,73.68,0,0,1,57.64,0,73.52,73.52,0,0,1,23.57,16.32,77.76,77.76,0,0,1,0,107.9A73.52,73.52,0,0,1,859,258.85,71.24,71.24,0,0,1,830.14,264.72Zm0-37.71a30.76,30.76,0,0,0,13.07-2.72,28.25,28.25,0,0,0,10.06-7.78,36.36,36.36,0,0,0,6.44-12.14,56.05,56.05,0,0,0,0-31.58,36.36,36.36,0,0,0-6.44-12.14,28.25,28.25,0,0,0-10.06-7.78,32.79,32.79,0,0,0-26.15,0,28.3,28.3,0,0,0-10,7.78,36.2,36.2,0,0,0-6.45,12.14,56.05,56.05,0,0,0,0,31.58A36.2,36.2,0,0,0,807,216.51a28.3,28.3,0,0,0,10,7.78A30.8,30.8,0,0,0,830.14,227Z" transform="translate(-17.06 -27.49)"/><path class="cls-1" d="M958.14,261.87,896.58,115.11H940.7L973.44,203l32.73-87.88h44.12L988.74,261.87Z" transform="translate(-17.06 -27.49)"/><path class="cls-1" d="M1091.83,261.87V195.34l-55.15-80.23h47.14l27.58,40.74L1139,115.11h47.15L1131,195.34v66.53Z" transform="translate(-17.06 -27.49)"/></svg>